<svg id="Layer_1" data-name="Layer 1" xmlns="http://www.w3.org/2000/svg" width="221.33mm" height="78.51mm" viewBox="0 0 627.39 222.56"><defs><style>.cls-1{fill:#3f81c0;}.cls-2,.cls-3,.cls-5{fill:none;stroke-miterlimit:10;}.cls-2{stroke:#f9d00f;}.cls-2,.cls-3,.cls-4{stroke-width:3px;}.cls-3{stroke:#f0825c;}.cls-4{fill:#fbaa19;stroke:#fff;stroke-linecap:round;stroke-linejoin:round;}.cls-5{stroke:#3f81c0;stroke-width:3.3px;}</style></defs><title>OMP logo</title><g id="colored"><g id="type"><path class="cls-1" d="M303.51,63.15A22.5,22.5,0,1,0,326,85.65,22.43,22.43,0,0,0,303.51,63.15Zm0,36.94A14.44,14.44,0,1,1,318,85.65,14.45,14.45,0,0,1,303.51,100.09Z"/><path class="cls-1" d="M353.23,63.12H340.39a4,4,0,0,0-4,4v37a4,4,0,0,0,8.06,0V89.71h9.32c7.56-.25,13.71-6,13.71-13.29S361.08,63.12,353.23,63.12Zm6.13,13.3c0,3-2.81,5.16-5.91,5.23h-9V71.18h8.81C356.75,71.18,359.36,73.63,359.36,76.42Z"/><path class="cls-1" d="M402.58,71.3h0a4,4,0,0,0,0-8.09l-22.29-.06a4,4,0,0,0-4,4.06v36.91a4,4,0,0,0,4,4h22.29a4,4,0,0,0,0-8.09H384.38V89.68h13a4,4,0,1,0,0-8.06h-13V71.24Z"/><path class="cls-1" d="M525.9,108.15a4,4,0,0,0,4-4V67.4a4,4,0,1,0-8.06,0v36.72A4,4,0,0,0,525.9,108.15Z"/><path class="cls-1" d="M627.39,85.62A22.3,22.3,0,0,0,605,63.24h-9.33a4,4,0,0,0-4,4v36.85a4,4,0,0,0,4.1,4L605,108A22.33,22.33,0,0,0,627.39,85.62Zm-8.09,0A14.26,14.26,0,0,1,605,99.94l-5.23.08V71.3H605A14.3,14.3,0,0,1,619.3,85.62Z"/><path class="cls-1" d="M293.73,128.17H284a1.68,1.68,0,0,0-1.68,1.67v28a1.68,1.68,0,1,0,3.35,0V145.56l8,0c5.89-.24,9.38-4.33,9.38-8.71C303.11,132,298.89,128.17,293.73,128.17Zm6.06,8.7c0,3-2.77,5.28-5.89,5.36h-8.21V131.52h8C297,131.52,299.79,133.78,299.79,136.87Z"/><path class="cls-1" d="M350,136.85c0-4.88-4.22-8.62-9.3-8.62h-9.65a1.64,1.64,0,0,0-1.66,1.66v27.77a1.64,1.64,0,0,0,1.68,1.65,1.66,1.66,0,0,0,1.65-1.65V145.47h6.47l6.47,13.13a1.63,1.63,0,0,0,2.22.76,1.65,1.65,0,0,0,.76-2.21l-5.84-11.91A8.76,8.76,0,0,0,350,136.85Zm-3.31,0c0,3-2.78,5.24-5.85,5.29h-8.12v-10.6h8C343.9,131.54,346.71,133.79,346.71,136.85Z"/><path class="cls-1" d="M389.6,128.19a15.67,15.67,0,1,0,15.66,15.67A15.6,15.6,0,0,0,389.6,128.19Zm0,28a12.33,12.33,0,1,1,12.34-12.32A12.28,12.28,0,0,1,389.6,156.18Z"/><path class="cls-1" d="M436.63,129.84v20.6a5.71,5.71,0,0,1-5.74,5.74,1.66,1.66,0,0,0-1.67,1.67,1.68,1.68,0,0,0,1.67,1.68,9.08,9.08,0,0,0,9.09-9.09v-20.6a1.68,1.68,0,0,0-1.67-1.69A1.66,1.66,0,0,0,436.63,129.84Z"/><path class="cls-1" d="M486.08,131.54a1.65,1.65,0,0,0,1.67-1.67,1.69,1.69,0,0,0-1.67-1.68l-16.89,0a1.68,1.68,0,0,0-1.7,1.67v28a1.68,1.68,0,0,0,1.68,1.68h16.91a1.68,1.68,0,0,0,0-3.35H470.84V145.51h11.3a1.68,1.68,0,1,0,0-3.35h-11.3V131.5Z"/><path class="cls-1" d="M535.1,153a12,12,0,0,1-8.32,3.2,12.33,12.33,0,0,1,0-24.66A12.15,12.15,0,0,1,534.3,134a1.67,1.67,0,1,0,2.05-2.64,15.32,15.32,0,0,0-9.57-3.25,15.7,15.7,0,0,0,0,31.4,15.25,15.25,0,0,0,10.58-4.09A1.68,1.68,0,0,0,535.1,153Z"/><path class="cls-1" d="M581.82,128.19H562.46a1.66,1.66,0,0,0-1.68,1.68,1.64,1.64,0,0,0,1.68,1.65h8v26.33a1.67,1.67,0,1,0,3.33,0V131.52h8a1.65,1.65,0,0,0,1.67-1.65A1.68,1.68,0,0,0,581.82,128.19Z"/><path class="cls-1" d="M616.94,131.5c3,0,6.42,1.14,7.18,4a1.66,1.66,0,0,0,3.22-.83c-1.17-4.46-5.82-6.54-10.4-6.54a9.62,9.62,0,0,0-9.85,9c-.19,4.17,3.08,8.3,10.08,8.38h.11c5,.08,6.89,2.63,6.78,4.91a6.29,6.29,0,0,1-6.52,5.78c-3,0-6.42-1.12-7.18-4a1.66,1.66,0,0,0-3.22.84c1.17,4.48,5.79,6.54,10.4,6.54a9.58,9.58,0,0,0,9.83-9c.22-4.4-3.36-8.27-10-8.39h-.12c-5-.07-6.89-2.6-6.79-4.88A6.31,6.31,0,0,1,616.94,131.5Z"/><path class="cls-1" d="M444.86,106.49a3.93,3.93,0,0,0,4.47,1.33,3.87,3.87,0,0,0,2.81-3.64V67.24a4,4,0,1,0-8.06,0V92.37L422.66,64.78a4,4,0,0,0-4.48-1.33,4,4,0,0,0-2.73,3.79v36.88a4,4,0,1,0,8.06,0V79S439.54,99.6,444.86,106.49Z"/><path class="cls-1" d="M509.32,67.12A4,4,0,0,0,501.81,65C498.09,71.14,487,89.5,487,89.5L472.21,65a4,4,0,0,0-7.51,2.09v37a4,4,0,0,0,8.09,0V81.6l10.69,17.7a4.13,4.13,0,0,0,3.39,2.15,3.93,3.93,0,0,0,3.51-2c2.68-4.5,10.86-17.9,10.86-17.9v22.52a4,4,0,0,0,8.07,0S509.32,76.37,509.32,67.12Z"/><path class="cls-1" d="M579.12,104.18V67.24a4,4,0,1,0-8,0V92.37L549.64,64.78a3.93,3.93,0,0,0-4.47-1.33,4,4,0,0,0-2.73,3.79v36.88a4,4,0,1,0,8,0V79s16,20.59,21.35,27.46a3.94,3.94,0,0,0,4.47,1.33A3.88,3.88,0,0,0,579.12,104.18Z"/></g><g id="symbol"><path class="cls-2" d="M218.39,119.81C215,181.51,163.28,226.48,101.3,220.53S-7.26,164.19,2.89,104.28C11.64,52.68,58.64,13.76,111.7,8.15,176.22,1.33,222,54.2,218.39,119.81Z"/><path class="cls-3" d="M207.69,115.11c4.28,62.31-39.94,108-98.74,102C48.24,211,7.06,161.21,3.16,109.18,1.07,81.37,8.92,52.91,31.71,30.12,96.58-34.75,201.09,17.94,207.69,115.11Z"/><path class="cls-1" d="M210.24,110.3A102.23,102.23,0,0,1,19.46,161.36c-.44-.75-.86-1.51-1.27-2.27-.69-1.25-1.34-2.52-2-3.81a102,102,0,0,1-10.41-45,102.22,102.22,0,1,1,204.43,0Z"/><path class="cls-4" d="M168.91,38.59c0,1.49-8.67-3.82-12.26-11.37-.92-1.93-2.65,4.5-4.1,5.28-2.48,1.35-8.85-1.46-7.48,4s6.76-2.33,11.16,7.27c3.22,7-.37,5.64-3.26,10.28-3.1,5,2.7,10.47,0,13.13-2.19,2.19-9.5-7.87-12.1-8.84-.39-.14-3.73,5-3.82,6.53-.13,2.4,6.55,6.41,7.2,9.53a14.52,14.52,0,0,1-5.82,13.79c-8.17,6.29-15.66,3.47-19.42,5.72-6.69,4,2.62,7.61,3.24,11.85.74,5-5.5,8.52-10.37,10.87-.77.37-7.57-8.13-8.22-9a18,18,0,0,0-3.25,9.38c0,2,11.78,14.72,8.83,16.7-2.79,1.88-12.39-10.55-13.5-13.5s3-11.77,1.77-15.69c-2.31-7.17-8.63-11-10.43-14.15-2.55.52-12.81,7.55-15.82,9.23-6.18,3.43-2.83,7.68-7.49,12-2.62,2.43-3.85,3-5.21-.32-7.25-17.91.77-24.53-7.31-33.11C47.36,74,40.18,63.51,36,60,35,62,32.9,75.08,37.29,83.8c.18.36,1.66-1.84,3.42-3.2.4-.31,2.53,9-3.81,13.89-.55.42-6.53,4.85-11.74,5.84-.63.12-4.8-12.22-1.3-32.72,0-.1-13.5,20.47-6.91,37.22,1.94,4.93,8,2.37,9,3.34,1.38,1.37-9,11-10.12,13-2.5,4.69,0,15.49.33,20.5.39,5.84,1.29,11.61,2.08,17.39A102.23,102.23,0,0,1,160.58,22.62C163.64,26.79,169.06,33.47,168.91,38.59Z"/><path class="cls-4" d="M108,154.4c-11.14-6.79-25.83-23.94-22.53-27.24,3.11-3.11,14.93,14.51,26.66,19.92,7.6,3.52,18.1,4.32,35.12,6C137.25,158.75,117.22,160,108,154.4Z"/><path class="cls-4" d="M131.48,140c3.33-3.61,7.52-9.22,7.76-16.58.12-3.58-6.64-.43-10.93,2.63-8.63,6.15-12.44,2.51-11.2,7.87.71,3.07,2.38,2.71,5,3.21C125.29,137.74,129.47,139.67,131.48,140Z"/><path class="cls-4" d="M164.3,132.65c-3.32,5,6,5.8,8,8.31,1.45,1.87,2,4.88,4.48,5.73,2.7-2,7.47-1.6,10.25-2.69,3.39-1.34,1.19-5.57.59-5.95C182.58,134.84,167,128.59,164.3,132.65Z"/><path class="cls-4" d="M166.27,60.24a15,15,0,0,1-6.47,8.06c-2.24,1.33-1.85,4.21-1.55,4.27,3.33.72,14.91-7.09,13.56-15.17-1.31-7.89-5.75-9.06-7.4-6.85C162.37,53.3,168.38,53.11,166.27,60.24Z"/><path class="cls-4" d="M118.09,191.83c.08-6.26,1-16.92,6.27-20.27,3.75-2.39,12.49-3.6,18.73-8.1,5.12-3.63,14.71-9.9,21.14-9.85,0,2.82-3.57,10,3,9.78,3.72-.14,7.11-7.86,8.48-10.89-.09,12.49,4.5,19.55-5.8,31.4-2.15,2.48-5.24,6.72-8.77,8.84-2.36,1.42-8.31,2.79-10.25,0C147.51,188,147.21,181.21,118.09,191.83Z"/><path class="cls-5" d="M210.25,110.31A102.22,102.22,0,1,1,108,8.09,102.21,102.21,0,0,1,210.25,110.31Z"/></g></g></svg>